<?xml version="1.0" encoding="UTF-8" standalone="no"?>
<!DOCTYPE svg PUBLIC "-//W3C//DTD SVG 1.1//EN"
 "http://www.w3.org/Graphics/SVG/1.1/DTD/svg11.dtd">
<!-- Generated by graphviz version 2.43.0 (0)
 -->
<!-- Title: %3 Pages: 1 -->
<svg width="286pt" height="218pt"
 viewBox="0.00 0.00 286.00 218.00" xmlns="http://www.w3.org/2000/svg" xmlns:xlink="http://www.w3.org/1999/xlink">
<g id="graph0" class="graph" transform="scale(1 1) rotate(0) translate(4 214)">
<title>%3</title>
<polygon fill="white" stroke="transparent" points="-4,4 -4,-214 282,-214 282,4 -4,4"/>
<!-- yb -->
<g id="node1" class="node">
<title>yb</title>
<ellipse fill="none" stroke="black" cx="27" cy="-105" rx="27" ry="18"/>
<text text-anchor="middle" x="27" y="-101.3" font-family="Times,serif" font-size="14.00">1</text>
</g>
<!-- y -->
<g id="node2" class="node">
<title>y</title>
<ellipse fill="none" stroke="black" cx="99" cy="-192" rx="27" ry="18"/>
<text text-anchor="middle" x="99" y="-188.3" font-family="Times,serif" font-size="14.00">y</text>
</g>
<!-- yb&#45;&gt;y -->
<g id="edge1" class="edge">
<title>yb&#45;&gt;y</title>
<path fill="none" stroke="black" d="M39.87,-121.2C50.93,-134.25 67.04,-153.26 79.65,-168.15"/>
<polygon fill="black" stroke="black" points="77.11,-170.57 86.24,-175.94 82.45,-166.04 77.11,-170.57"/>
<text text-anchor="middle" x="79" y="-144.8" font-family="Times,serif" font-size="14.00">&#45;0.5</text>
</g>
<!-- h1 -->
<g id="node3" class="node">
<title>h1</title>
<ellipse fill="none" stroke="black" cx="99" cy="-105" rx="27" ry="18"/>
<text text-anchor="middle" x="99" y="-101.3" font-family="Times,serif" font-size="14.00">h1</text>
</g>
<!-- h1&#45;&gt;y -->
<g id="edge2" class="edge">
<title>h1&#45;&gt;y</title>
<path fill="none" stroke="black" d="M99,-123.2C99,-134.84 99,-150.45 99,-163.76"/>
<polygon fill="black" stroke="black" points="95.5,-163.82 99,-173.82 102.5,-163.82 95.5,-163.82"/>
<text text-anchor="middle" x="105" y="-144.8" font-family="Times,serif" font-size="14.00">&#45;1</text>
</g>
<!-- h2 -->
<g id="node4" class="node">
<title>h2</title>
<ellipse fill="none" stroke="black" cx="193" cy="-105" rx="27" ry="18"/>
<text text-anchor="middle" x="193" y="-101.3" font-family="Times,serif" font-size="14.00">h2</text>
</g>
<!-- h2&#45;&gt;y -->
<g id="edge3" class="edge">
<title>h2&#45;&gt;y</title>
<path fill="none" stroke="black" d="M177.48,-120.04C162.37,-133.69 139.24,-154.61 122,-170.2"/>
<polygon fill="black" stroke="black" points="119.62,-167.64 114.55,-176.94 124.31,-172.83 119.62,-167.64"/>
<text text-anchor="middle" x="159" y="-144.8" font-family="Times,serif" font-size="14.00">+1</text>
</g>
<!-- h1b -->
<g id="node5" class="node">
<title>h1b</title>
<ellipse fill="none" stroke="black" cx="35" cy="-18" rx="27" ry="18"/>
<text text-anchor="middle" x="35" y="-14.3" font-family="Times,serif" font-size="14.00">1</text>
</g>
<!-- h1b&#45;&gt;h1 -->
<g id="edge4" class="edge">
<title>h1b&#45;&gt;h1</title>
<path fill="none" stroke="black" d="M41.45,-35.66C45.83,-45.84 52.23,-58.81 60,-69 64.05,-74.32 69,-79.47 73.98,-84.11"/>
<polygon fill="black" stroke="black" points="71.91,-86.95 81.73,-90.93 76.54,-81.69 71.91,-86.95"/>
<text text-anchor="middle" x="71" y="-57.8" font-family="Times,serif" font-size="14.00">&#45;1.5</text>
</g>
<!-- x1 -->
<g id="node6" class="node">
<title>x1</title>
<ellipse fill="none" stroke="black" cx="179" cy="-18" rx="27" ry="18"/>
<text text-anchor="middle" x="179" y="-14.3" font-family="Times,serif" font-size="14.00">x1</text>
</g>
<!-- x1&#45;&gt;h1 -->
<g id="edge5" class="edge">
<title>x1&#45;&gt;h1</title>
<path fill="none" stroke="black" d="M169,-35.17C162.29,-45.41 152.89,-58.62 143,-69 137.63,-74.63 131.33,-80.16 125.21,-85.09"/>
<polygon fill="black" stroke="black" points="122.83,-82.5 117.08,-91.4 127.12,-88.04 122.83,-82.5"/>
<text text-anchor="middle" x="163" y="-57.8" font-family="Times,serif" font-size="14.00">+1</text>
</g>
<!-- x1&#45;&gt;h2 -->
<g id="edge8" class="edge">
<title>x1&#45;&gt;h2</title>
<path fill="none" stroke="black" d="M181.83,-36.2C183.75,-47.84 186.32,-63.45 188.51,-76.76"/>
<polygon fill="black" stroke="black" points="185.09,-77.53 190.17,-86.82 192,-76.39 185.09,-77.53"/>
<text text-anchor="middle" x="194" y="-57.8" font-family="Times,serif" font-size="14.00">+1</text>
</g>
<!-- x2 -->
<g id="node7" class="node">
<title>x2</title>
<ellipse fill="none" stroke="black" cx="107" cy="-18" rx="27" ry="18"/>
<text text-anchor="middle" x="107" y="-14.3" font-family="Times,serif" font-size="14.00">x2</text>
</g>
<!-- x2&#45;&gt;h1 -->
<g id="edge6" class="edge">
<title>x2&#45;&gt;h1</title>
<path fill="none" stroke="black" d="M96.33,-34.69C92.97,-40.49 89.7,-47.3 88,-54 86.07,-61.58 86.77,-69.86 88.52,-77.46"/>
<polygon fill="black" stroke="black" points="85.22,-78.66 91.4,-87.27 91.94,-76.69 85.22,-78.66"/>
<text text-anchor="middle" x="96" y="-57.8" font-family="Times,serif" font-size="14.00">+1</text>
</g>
<!-- x2&#45;&gt;h2 -->
<g id="edge9" class="edge">
<title>x2&#45;&gt;h2</title>
<path fill="none" stroke="black" d="M109.12,-36.4C111.16,-46.86 115.17,-59.86 123,-69 132.44,-80.02 146.18,-87.93 159,-93.42"/>
<polygon fill="black" stroke="black" points="157.94,-96.76 168.53,-97.15 160.49,-90.25 157.94,-96.76"/>
<text text-anchor="middle" x="131" y="-57.8" font-family="Times,serif" font-size="14.00">+1</text>
</g>
<!-- h2b -->
<g id="node8" class="node">
<title>h2b</title>
<ellipse fill="none" stroke="black" cx="251" cy="-18" rx="27" ry="18"/>
<text text-anchor="middle" x="251" y="-14.3" font-family="Times,serif" font-size="14.00">1</text>
</g>
<!-- h2b&#45;&gt;h2 -->
<g id="edge7" class="edge">
<title>h2b&#45;&gt;h2</title>
<path fill="none" stroke="black" d="M240.36,-34.59C231.75,-47.21 219.47,-65.21 209.57,-79.72"/>
<polygon fill="black" stroke="black" points="206.51,-77.99 203.77,-88.22 212.29,-81.93 206.51,-77.99"/>
<text text-anchor="middle" x="236" y="-57.8" font-family="Times,serif" font-size="14.00">&#45;0.5</text>
</g>
</g>
</svg>
